<?xml version="1.0" encoding="UTF-8" standalone="no"?>
<!-- Created with Inkscape (http://www.inkscape.org/) -->

<svg
   width="70.243279mm"
   height="33.974525mm"
   viewBox="0 0 70.243279 33.974526"
   version="1.1"
   id="svg1"
   xmlns:xlink="http://www.w3.org/1999/xlink"
   xmlns="http://www.w3.org/2000/svg"
   xmlns:svg="http://www.w3.org/2000/svg">
  <defs
     id="defs1">
    <linearGradient
       id="linearGradient52">
      <stop
         style="stop-color:#ff8532;stop-opacity:1;"
         offset="0"
         id="stop52" />
      <stop
         style="stop-color:#872c00;stop-opacity:1;"
         offset="1"
         id="stop53" />
    </linearGradient>
    <clipPath
       clipPathUnits="userSpaceOnUse"
       id="clipPath22">
      <rect
         style="fill:#ff0000;stroke:none;stroke-width:3;stroke-linecap:square;stroke-linejoin:miter;paint-order:stroke markers fill;stop-color:#000000"
         id="rect22"
         width="78"
         height="45.033199"
         x="763.61322"
         y="452.82422" />
    </clipPath>
    <clipPath
       clipPathUnits="userSpaceOnUse"
       id="clipPath25">
      <rect
         style="fill:#ff0000;stroke:none;stroke-width:3;stroke-linecap:square;stroke-linejoin:miter;paint-order:stroke markers fill;stop-color:#000000"
         id="rect25-8"
         width="78"
         height="45.033199"
         x="763.61322"
         y="452.82422" />
    </clipPath>
    <linearGradient
       id="swatch14">
      <stop
         style="stop-color:#d40000;stop-opacity:1;"
         offset="0"
         id="stop14" />
    </linearGradient>
    <clipPath
       clipPathUnits="userSpaceOnUse"
       id="clipPath12">
      <rect
         style="fill:none;stroke:#000000;stroke-linecap:butt;stroke-linejoin:bevel;paint-order:stroke markers fill;stop-color:#000000"
         id="rect12"
         width="45.034248"
         height="38.955639"
         x="262.48285"
         y="121.00073" />
    </clipPath>
    <clipPath
       clipPathUnits="userSpaceOnUse"
       id="clipPath15">
      <rect
         style="fill:none;stroke:#000000;stroke-linecap:butt;stroke-linejoin:bevel;paint-order:stroke markers fill;stop-color:#000000"
         id="rect15-7"
         width="45.034248"
         height="38.955639"
         x="262.48285"
         y="121.00073" />
    </clipPath>
    <linearGradient
       id="swatch6">
      <stop
         style="stop-color:#000000;stop-opacity:1;"
         offset="0"
         id="stop6" />
    </linearGradient>
    <linearGradient
       id="linearGradient2">
      <stop
         style="stop-color:#008080;stop-opacity:1;"
         offset="0"
         id="stop2" />
      <stop
         style="stop-color:#008080;stop-opacity:0.41896811;"
         offset="1"
         id="stop3" />
    </linearGradient>
    <radialGradient
       xlink:href="#linearGradient2"
       id="radialGradient3"
       cx="107.6683"
       cy="121.76772"
       fx="107.6683"
       fy="121.76772"
       r="15.590299"
       gradientTransform="matrix(0.97528817,0,0,1.1504602,2.283691,-18.32119)"
       gradientUnits="userSpaceOnUse" />
    <radialGradient
       xlink:href="#linearGradient52"
       id="radialGradient53"
       cx="107.29131"
       cy="121.76772"
       fx="107.29131"
       fy="121.76772"
       r="16.07588"
       gradientTransform="matrix(1,0,0,1.1688447,0,-20.559839)"
       gradientUnits="userSpaceOnUse" />
  </defs>
  <g
     id="layer1"
     transform="rotate(90,132.21811,41.002679)">
    <path
       style="opacity:0.647967;fill:none;fill-opacity:0.663472;stroke:#993d00;stroke-width:2.171;stroke-linecap:round;stroke-dasharray:none;stroke-opacity:1"
       d="m 116.9726,134.98594 c 0,0 -1.31065,4.72514 3.70357,12.5923 5.91898,9.82748 2.34125,21.94248 2.34125,21.94248"
       id="path7" />
    <path
       style="opacity:0.647967;fill:none;fill-opacity:0.663472;stroke:#993d00;stroke-width:2.171;stroke-linecap:round;stroke-dasharray:none;stroke-opacity:1"
       d="m 105.98858,139.20838 c 0,0 -2.47565,10.93374 2.1844,19.98235 4.66004,9.04862 0.14561,12.94456 0.14561,12.94456"
       id="path8" />
    <path
       style="opacity:0.647967;fill:none;fill-opacity:0.663472;stroke:#993d00;stroke-width:2.171;stroke-linecap:round;stroke-dasharray:none;stroke-opacity:1"
       d="m 98.504768,135.6896 c 0,0 -0.552368,6.988 -4.113726,15.93557 -1.148623,4.42368 -0.708333,14.3264 4.097339,19.22773"
       id="path9" />
    <path
       style="opacity:0.647967;fill:none;fill-opacity:0.663472;stroke:#993d00;stroke-width:2.171;stroke-linecap:round;stroke-dasharray:none;stroke-opacity:1"
       d="m 111.38192,138.9319 c 0,0 4.84791,11.76316 4.26541,17.54421 -0.58251,5.78107 -3.20378,12.44186 -0.58251,14.07563"
       id="path10" />
    <path
       style="opacity:0.647967;fill:none;fill-opacity:0.663472;stroke:#993d00;stroke-width:2.171;stroke-linecap:round;stroke-dasharray:none;stroke-opacity:1"
       d="m 102.18162,138.40408 c 0,0 -3.640663,9.67699 -1.89315,15.08103 1.74752,5.40403 4.80567,10.80807 3.49503,13.32157"
       id="path12" />
    <ellipse
       style="opacity:1;fill:url(#radialGradient53);fill-opacity:1;stroke:#654300;stroke-width:2.532;stroke-linecap:round;stroke-dasharray:none;stroke-opacity:1"
       id="path1"
       ry="17.274208"
       rx="14.55988"
       cy="121.76772"
       cx="107.29131" />
    <g
       id="g3"
       transform="translate(-0.21385258)"
       style="opacity:0.647967;stroke:#2b1100">
      <path
         style="fill:none;fill-rule:evenodd;stroke:#2b1100;stroke-width:1.23965;stroke-dasharray:none"
         id="path3"
         d="m 96.961792,150.94673 c -0.158774,0.31755 -0.506382,-0.0574 -0.527786,-0.26389 -0.058,-0.5597 0.581576,-0.86598 1.055573,-0.79168 0.847869,0.1329 1.256298,1.07578 1.05557,1.84725 -0.294578,1.13217 -1.575591,1.65518 -2.63893,1.31946 -1.417264,-0.44746 -2.057531,-2.07725 -1.583355,-3.43061 0.596702,-1.70305 2.579773,-2.46163 4.222288,-1.84724 1.989308,0.74411 2.866748,3.08276 2.111138,5.01396 -0.890461,2.27587 -3.586034,3.2725 -5.805645,2.37504 -2.562628,-1.03617 -3.678669,-4.08951 -2.638923,-6.59733 1.181425,-2.84954 4.593116,-4.08513 7.389003,-2.90281 3.136565,1.32638 4.491815,5.09682 3.166705,8.18068 -1.47112,3.42366 -5.600609,4.89866 -8.972358,3.4306"
         transform="matrix(0.56222573,0,0,0.56713414,47.077592,28.827779)" />
      <path
         style="fill:none;fill-rule:evenodd;stroke:#2b1100;stroke-width:1.23965;stroke-dasharray:none"
         id="path3-3"
         d="m 96.961792,150.94673 c -0.158774,0.31755 -0.506382,-0.0574 -0.527786,-0.26389 -0.058,-0.5597 0.581576,-0.86598 1.055573,-0.79168 0.847869,0.1329 1.256298,1.07578 1.05557,1.84725 -0.294578,1.13217 -1.575591,1.65518 -2.63893,1.31946 -1.417264,-0.44746 -2.057531,-2.07725 -1.583355,-3.43061 0.596702,-1.70305 2.579773,-2.46163 4.222288,-1.84724 1.989308,0.74411 2.866748,3.08276 2.111138,5.01396 -0.890461,2.27587 -3.586034,3.2725 -5.805645,2.37504 -2.562628,-1.03617 -3.678669,-4.08951 -2.638923,-6.59733 1.181425,-2.84954 4.593116,-4.08513 7.389003,-2.90281 3.136565,1.32638 4.491815,5.09682 3.166705,8.18068 -1.47112,3.42366 -5.600609,4.89866 -8.972358,3.4306"
         transform="matrix(0.56222573,0,0,0.56713414,58.243416,28.827779)" />
    </g>
  </g>
</svg>
